<svg width="20" height="20" viewBox="0 0 20 20" fill="none" xmlns="http://www.w3.org/2000/svg">
<path d="M18.5 0H2C1.60218 0 1.22064 0.158035 0.93934 0.43934C0.658035 0.720644 0.5 1.10218 0.5 1.5V18C0.5 18.3978 0.658035 18.7794 0.93934 19.0607C1.22064 19.342 1.60218 19.5 2 19.5H18.5C18.8978 19.5 19.2794 19.342 19.5607 19.0607C19.842 18.7794 20 18.3978 20 18V1.5C20 1.10218 19.842 0.720644 19.5607 0.43934C19.2794 0.158035 18.8978 0 18.5 0ZM18.5 18H2V1.5H18.5V18ZM7.25 8.25V14.25C7.25 14.4489 7.17098 14.6397 7.03033 14.7803C6.88968 14.921 6.69891 15 6.5 15C6.30109 15 6.11032 14.921 5.96967 14.7803C5.82902 14.6397 5.75 14.4489 5.75 14.25V8.25C5.75 8.05109 5.82902 7.86032 5.96967 7.71967C6.11032 7.57902 6.30109 7.5 6.5 7.5C6.69891 7.5 6.88968 7.57902 7.03033 7.71967C7.17098 7.86032 7.25 8.05109 7.25 8.25ZM15.5 10.875V14.25C15.5 14.4489 15.421 14.6397 15.2803 14.7803C15.1397 14.921 14.9489 15 14.75 15C14.5511 15 14.3603 14.921 14.2197 14.7803C14.079 14.6397 14 14.4489 14 14.25V10.875C14 10.3777 13.8025 9.90081 13.4508 9.54918C13.0992 9.19754 12.6223 9 12.125 9C11.6277 9 11.1508 9.19754 10.7992 9.54918C10.4475 9.90081 10.25 10.3777 10.25 10.875V14.25C10.25 14.4489 10.171 14.6397 10.0303 14.7803C9.88968 14.921 9.69891 15 9.5 15C9.30109 15 9.11032 14.921 8.96967 14.7803C8.82902 14.6397 8.75 14.4489 8.75 14.25V8.25C8.75093 8.06629 8.81925 7.88931 8.94201 7.75264C9.06477 7.61596 9.23342 7.5291 9.41598 7.50852C9.59853 7.48794 9.78229 7.53508 9.93239 7.641C10.0825 7.74691 10.1885 7.90423 10.2303 8.08313C10.7377 7.73894 11.3292 7.53947 11.9414 7.50611C12.5536 7.47276 13.1633 7.60679 13.705 7.89381C14.2468 8.18083 14.7001 8.61 15.0164 9.13523C15.3326 9.66046 15.4998 10.2619 15.5 10.875ZM7.625 5.625C7.625 5.8475 7.55902 6.06501 7.4354 6.25002C7.31179 6.43502 7.13609 6.57922 6.93052 6.66436C6.72495 6.74951 6.49875 6.77179 6.28052 6.72838C6.06229 6.68498 5.86184 6.57783 5.7045 6.4205C5.54717 6.26316 5.44002 6.06271 5.39662 5.84448C5.35321 5.62625 5.37549 5.40005 5.46064 5.19448C5.54578 4.98891 5.68998 4.81321 5.87498 4.6896C6.05999 4.56598 6.2775 4.5 6.5 4.5C6.79837 4.5 7.08452 4.61853 7.2955 4.8295C7.50647 5.04048 7.625 5.32663 7.625 5.625Z" fill="black"/>
</svg>
